<svg width="24" height="24" viewBox="0 0 24 24" fill="none" xmlns="http://www.w3.org/2000/svg">
<path d="M16.1649 11.6148C17.1632 10.763 17.8763 9.62554 18.2081 8.35587C18.5399 7.0862 18.4744 5.74533 18.0205 4.51403C17.5666 3.28273 16.746 2.22021 15.6695 1.46972C14.593 0.719231 13.3122 0.316864 11.9999 0.316864C10.6876 0.316864 9.40686 0.719231 8.33033 1.46972C7.2538 2.22021 6.43326 3.28273 5.97934 4.51403C5.52541 5.74533 5.45994 7.0862 5.79173 8.35587C6.12352 9.62554 6.83663 10.763 7.83492 11.6148C5.63023 12.4574 3.73295 13.9488 2.39361 15.8922C1.05427 17.8356 0.335859 20.1395 0.333252 22.4998C0.333252 22.8092 0.456168 23.1059 0.674961 23.3247C0.893753 23.5435 1.1905 23.6664 1.49992 23.6664C1.80934 23.6664 2.10608 23.5435 2.32488 23.3247C2.54367 23.1059 2.66659 22.8092 2.66659 22.4998C2.66659 20.0244 3.64992 17.6504 5.40026 15.9001C7.1506 14.1498 9.52457 13.1664 11.9999 13.1664C14.4753 13.1664 16.8492 14.1498 18.5996 15.9001C20.3499 17.6504 21.3333 20.0244 21.3333 22.4998C21.3333 22.8092 21.4562 23.1059 21.675 23.3247C21.8938 23.5435 22.1905 23.6664 22.4999 23.6664C22.8093 23.6664 23.1061 23.5435 23.3249 23.3247C23.5437 23.1059 23.6666 22.8092 23.6666 22.4998C23.664 20.1395 22.9456 17.8356 21.6062 15.8922C20.2669 13.9488 18.3696 12.4574 16.1649 11.6148ZM11.9999 10.8331C11.1923 10.8331 10.4028 10.5936 9.73134 10.1449C9.05984 9.69624 8.53647 9.05851 8.22741 8.31238C7.91835 7.56625 7.83749 6.74523 7.99505 5.95314C8.1526 5.16105 8.5415 4.43347 9.11257 3.86241C9.68363 3.29134 10.4112 2.90244 11.2033 2.74489C11.9954 2.58733 12.8164 2.66819 13.5625 2.97725C14.3087 3.28631 14.9464 3.80968 15.3951 4.48118C15.8438 5.15268 16.0833 5.94215 16.0833 6.74976C16.0833 7.83273 15.653 8.87134 14.8873 9.63711C14.1215 10.4029 13.0829 10.8331 11.9999 10.8331Z" fill="#9B51E0"/>
</svg>
